<svg xmlns="http://www.w3.org/2000/svg" width="800" height="640" viewBox="0 0 800 640" fill="none" aria-hidden="true">
  <defs>
    <linearGradient id="g1" x1="0" y1="0" x2="1" y2="1">
      <stop offset="0%" stop-color="#0d9488" stop-opacity="0.35"/>
      <stop offset="50%" stop-color="#14b8a6" stop-opacity="0.12"/>
      <stop offset="100%" stop-color="#0f172a" stop-opacity="0"/>
    </linearGradient>
    <linearGradient id="g2" x1="1" y1="0" x2="0" y2="1">
      <stop offset="0%" stop-color="#5eead4" stop-opacity="0.25"/>
      <stop offset="100%" stop-color="#0f766e" stop-opacity="0"/>
    </linearGradient>
    <radialGradient id="r1" cx="0.35" cy="0.25" r="0.65">
      <stop offset="0%" stop-color="#5eead4" stop-opacity="0.2"/>
      <stop offset="100%" stop-color="#0f172a" stop-opacity="0"/>
    </radialGradient>
  </defs>
  <rect width="800" height="640" fill="#0f172a"/>
  <rect width="800" height="640" fill="url(#g1)"/>
  <rect width="800" height="640" fill="url(#g2)"/>
  <rect width="800" height="640" fill="url(#r1)"/>
  <g stroke="#5eead4" stroke-opacity="0.15" stroke-width="1">
    <path d="M80 120 L240 80 L400 140 L560 90 L720 130"/>
    <path d="M60 280 L220 240 L380 300 L540 250 L760 290"/>
    <path d="M100 440 L260 400 L420 460 L580 410 L740 450"/>
    <path d="M80 120 L100 440 M240 80 L260 400 M400 140 L420 460 M560 90 L580 410 M720 130 L740 450"/>
  </g>
  <circle cx="240" cy="80" r="4" fill="#5eead4" fill-opacity="0.5"/>
  <circle cx="400" cy="140" r="4" fill="#5eead4" fill-opacity="0.45"/>
  <circle cx="560" cy="90" r="4" fill="#5eead4" fill-opacity="0.4"/>
  <circle cx="380" cy="300" r="5" fill="#14b8a6" fill-opacity="0.55"/>
  <circle cx="720" cy="130" r="4" fill="#99f6e4" fill-opacity="0.35"/>
</svg>
